<svg width="251" height="116" viewBox="0 0 251 116" fill="none" xmlns="http://www.w3.org/2000/svg">
<path d="M86.9375 9.1875C86.9375 6.10417 87.6667 3.89583 89.125 2.5625C90.5833 1.1875 92.5417 0.5 95 0.5C97.375 0.5 99.3125 1.1875 100.812 2.5625C102.312 3.89583 103.062 6.10417 103.062 9.1875C103.062 12.2292 102.312 14.4375 100.812 15.8125C99.3542 17.1875 97.4167 17.875 95 17.875C92.5417 17.875 90.5833 17.1875 89.125 15.8125C87.6667 14.4375 86.9375 12.2292 86.9375 9.1875Z" fill="#10B981"/>
<path fill-rule="evenodd" clip-rule="evenodd" d="M112.75 22.4375C109.542 21.6875 105.75 21.3125 101.375 21.3125C97.2041 21.3125 93.3434 21.75 89.7929 22.625H55.1875V28H58.125C63.75 28 66.5625 30.0833 66.5625 34.25C66.5625 35.6667 66.1875 37.5 65.4375 39.75L51.3125 80.4375C49.8958 84.4375 48.7292 88.1667 47.8125 91.625C46.8958 95.0833 46.1042 98.3542 45.4375 101.438C44.7292 98.3542 43.9167 95.0417 43 91.5C42.0833 87.9167 40.9792 84.2292 39.6875 80.4375L25.625 38.875C25.2917 37.9167 25.0208 37.0625 24.8125 36.3125C24.6458 35.5625 24.5625 34.8333 24.5625 34.125C24.5625 30.0417 27.125 28 32.25 28H35.1875V22.625H0V28H1.6875C4.22917 28 6.14583 28.4792 7.4375 29.4375C8.77083 30.3958 9.875 32.1667 10.75 34.75L38.375 114H47.75L60.7492 76.6887C61.1546 80.4834 61.8424 84.0663 62.8125 87.4375C64.4792 93.2292 66.9583 98.1875 70.25 102.312C72.6818 105.399 75.5568 107.961 78.875 109.997L80.5 111L82.5 112L85 113L88.4049 114C91.7136 114.833 95.3078 115.25 99.1875 115.25C103.938 115.25 108.042 114.812 111.5 113.938C114.958 113.021 117.812 111.875 120.062 110.5C122.312 109.125 123.979 107.604 125.062 105.938C125.135 105.828 125.205 105.718 125.273 105.608C126.332 107.374 127.782 108.921 129.625 110.25C131.75 111.792 134.396 113.021 137.562 113.938C140.771 114.812 144.458 115.25 148.625 115.25C158.333 115.25 165.979 113 171.562 108.5C174.419 106.185 176.561 103.448 177.988 100.289C179.394 103.172 181.273 105.596 183.625 107.562C186.375 109.854 189.75 111.542 193.75 112.625C197.75 113.708 202.271 114.25 207.312 114.25C217.438 114.25 225.229 111.812 230.688 106.938C236.021 102.188 238.688 95.5 238.688 86.875V36.1875C238.688 32.3958 239.646 29.9167 241.562 28.75C243.479 27.5833 246.021 27 249.188 27H250.875V21.625H218.75V27H220.375C223.458 27 225.979 27.5625 227.938 28.6875C229.896 29.7708 230.875 32.1042 230.875 35.6875V86.625C230.875 89.5417 230.438 92.2292 229.562 94.6875C228.729 97.1042 227.438 99.1875 225.688 100.938C223.896 102.729 221.646 104.125 218.938 105.125C216.271 106.125 213.083 106.625 209.375 106.625C206.25 106.625 203.375 106.25 200.75 105.5C198.167 104.75 195.938 103.562 194.062 101.938C192.146 100.312 190.646 98.2083 189.562 95.625C188.521 93 188 89.8333 188 86.125V36.1875C188 32.3958 188.958 29.9167 190.875 28.75C192.792 27.5833 195.333 27 198.5 27H200.188V21.625H162.938V22.5507C162.875 22.5337 162.813 22.5168 162.75 22.5C159.792 21.7083 156.396 21.3125 152.562 21.3125C148.724 21.3125 145.223 21.75 142.061 22.625L139.5 23.5L135.938 25.095C134.723 25.7658 133.577 26.5258 132.5 27.375C130.269 29.1602 128.469 31.2939 127.1 33.7761C126.549 30.3692 124.474 27.5897 120.875 25.4375C118.708 24.1458 116 23.1458 112.75 22.4375ZM124.706 41.6782C124.485 41.8768 124.25 42.0674 124 42.25C121.973 43.7602 119.491 44.5502 116.555 44.6199L148.125 93.375V72.9375C144.167 71.3125 140.708 69.5833 137.75 67.75C134.792 65.875 132.333 63.7917 130.375 61.5C126.5 57.0833 124.562 51.4167 124.562 44.5C124.562 43.5318 124.61 42.5912 124.706 41.6782ZM155.938 76.5241V108.335C158.768 107.674 161.143 106.521 163.062 104.875C166.312 102.083 167.938 98.0833 167.938 92.875C167.938 88.2917 166.5 84.5625 163.625 81.6875C162.083 80.1875 160.042 78.75 157.5 77.375C157.004 77.0938 156.483 76.8102 155.938 76.5241ZM142.702 107.685L132.74 92.3782C132.94 93.718 133.215 95.0294 133.562 96.3125C134.271 98.7708 135.312 100.938 136.688 102.812C138.062 104.688 139.812 106.188 141.938 107.312C142.186 107.444 142.441 107.568 142.702 107.685ZM130.384 88.7584L98.8125 40.25V99.4375C98.8125 103.161 99.7365 105.618 101.584 106.81C104.52 106.783 107.117 106.492 109.375 105.938C111.792 105.312 113.917 104.5 115.75 103.5C117.583 102.5 119.188 101.354 120.562 100.062C121.488 99.1915 122.342 98.3027 123.126 97.3961C123.125 97.3475 123.125 97.2988 123.125 97.25C123.125 94.6667 123.917 92.5833 125.5 91C126.74 89.7919 128.368 89.0447 130.384 88.7584ZM155.938 62.9101V37.1875C155.938 33.4375 156.875 30.9792 158.75 29.8125C158.953 29.6847 159.163 29.5637 159.38 29.4495C159.704 29.6381 160.015 29.8424 160.312 30.0625C162.438 31.5625 163.979 33.5417 164.938 36C165.938 38.4583 166.438 41.125 166.438 44C169.521 44 171.958 43.3125 173.75 41.9375C174.258 41.5451 174.695 41.1015 175.062 40.6068V75.0298C174.668 74.55 174.251 74.0817 173.812 73.625C171.771 71.5417 169.271 69.6458 166.312 67.9375C163.396 66.2292 160.062 64.6042 156.312 63.0625C156.187 63.0117 156.062 62.9609 155.938 62.9101ZM144.323 29.2439C144.622 29.3805 144.91 29.5284 145.188 29.6875C147.146 30.7708 148.125 33.1042 148.125 36.6875V59.3301C147.716 59.115 147.32 58.9008 146.938 58.6875C144.438 57.2708 142.396 55.7917 140.812 54.25C137.896 51.3333 136.438 47.3542 136.438 42.3125C136.438 37.8125 137.833 34.2708 140.625 31.6875C141.713 30.6794 142.946 29.8648 144.323 29.2439ZM116.115 43.9413C116.04 41.284 115.522 38.8035 114.562 36.5C113.521 34 111.896 31.9792 109.688 30.4375C108.698 29.7467 107.579 29.2107 106.33 28.8294L116.115 43.9413ZM89.2267 30.5989C89.0875 30.6686 88.9494 30.7398 88.8125 30.8125C85.4375 32.5625 82.6875 35.125 80.5625 38.5C78.4375 41.9167 76.8958 46.125 75.9375 51.125C74.9792 56.0833 74.5 61.7708 74.5 68.1875C74.5 73.8958 75 79.125 76 83.875C77 88.625 78.5833 92.6875 80.75 96.0625C82.9167 99.4792 85.6667 102.125 89 104C89.3557 104.198 89.7188 104.385 90.0893 104.562C90.6964 103.256 91 101.548 91 99.4375V36.6875C91 33.9034 90.4089 31.8739 89.2267 30.5989Z" fill="#10B981"/>
<path d="M146.125 2.5625C144.667 3.89583 143.938 6.10417 143.938 9.1875C143.938 12.2292 144.667 14.4375 146.125 15.8125C147.583 17.1875 149.542 17.875 152 17.875C154.417 17.875 156.354 17.1875 157.812 15.8125C159.312 14.4375 160.062 12.2292 160.062 9.1875C160.062 6.10417 159.312 3.89583 157.812 2.5625C156.312 1.1875 154.375 0.5 152 0.5C149.542 0.5 147.583 1.1875 146.125 2.5625Z" fill="#10B981"/>
</svg>
